# xmcd
#
# Track frame offsets:
#	150
#	15682
#	35196
#	56779
#	79259
#	98372
#	112821
#	128142
#	150794
#	167491
#	187936
#	217083
#	248054
#	258713
#	276217
#
# Disc length: 3836 seconds
#
# Revision: 3
# Processed by: cddbd v1.5.2PL0 Copyright (c) Steve Scherf et al.
# Submitted via: EZCDAudioConverter 2.1.7.1
#
DISCID=c30efa0f
DTITLE=V/A - ok_computer
DYEAR=2008
DGENRE=MOJO
TTITLE0=Human League - Circus Of Death
TTITLE1=Gary Numan and Tubeway Army - Down In The Park
TTITLE2=The Knife - Silent Shout
TTITLE3=Fujiya and Miyagi - Ankle Injuries
TTITLE4=Matthew Dear - Fleece On Brain
TTITLE5=John Foxx - Burning Car
TTITLE6=Arthur Russell - Place I Know/Kid Like You
TTITLE7=Xela - Afraid Of Monsters
TTITLE8=Tangerine Dream - Rubycon (Part 1)
TTITLE9=Clouddead - Dead Dogs Two [Boards Of Canada Remix]
TTITLE10=Severed Heads - Dead Eyes Opened
TTITLE11=Farley Jackmaster Funk - The Acid Life
TTITLE12=The Peppers - Pepper Box
TTITLE13=Genle Rain - Plastic Man
TTITLE14=Sounds Of Tomorrow - Space Child
EXTD=
EXTT0=
EXTT1=
EXTT2=
EXTT3=
EXTT4=
EXTT5=
EXTT6=
EXTT7=
EXTT8=
EXTT9=
EXTT10=
EXTT11=
EXTT12=
EXTT13=
EXTT14=
PLAYORDER=
